<svg id="Capa_1" data-name="Capa 1" xmlns="http://www.w3.org/2000/svg" viewBox="0 0 120 127"><defs><style>.cls-1{fill:#ff312e;stroke:#2de1fc;stroke-miterlimit:10;}</style></defs><path class="cls-1" d="M102.22,73V6.12L67.67,47.38A42.39,42.39,0,0,0,47.09,42Q30.9,42,19.46,52.42T8,77.52q0,14.7,11.46,25.11T47.09,113q16.19,0,27.64-10.4,9.34-8.49,11.07-19.84h5.59V97.64h10.83V82.79H112V73ZM91.39,73H60.07l-.09.11-13.61-.24-.11.13L38,82.79H77A26,26,0,0,1,68.59,97a30.76,30.76,0,0,1-21.5,8.12A30.74,30.74,0,0,1,25.6,97Q16.67,89,16.67,77.52T25.6,58a30.73,30.73,0,0,1,21.49-8.11A31.91,31.91,0,0,1,58.65,52a31.22,31.22,0,0,1,3.77,1.67l-.05.06,9.54,4.78L91.39,35.22Z"/></svg>